<?xml version="1.0" standalone="no"?>
<!DOCTYPE svg PUBLIC "-//W3C//DTD SVG 20010904//EN"
 "http://www.w3.org/TR/2001/REC-SVG-20010904/DTD/svg10.dtd">
<svg version="1.0" xmlns="http://www.w3.org/2000/svg"
 width="16.000000pt" height="16.000000pt" viewBox="0 0 16.000000 16.000000"
 preserveAspectRatio="xMidYMid meet">
<metadata>
Created by potrace 1.16, written by Peter Selinger 2001-2019
</metadata>
<g transform="translate(0.000000,16.000000) scale(0.020779,-0.020779)"
fill="#000000" stroke="none">
<path d="M374 565 c-61 -19 -125 -55 -119 -65 3 -5 0 -7 -7 -5 -8 3 -28 -7
-46 -21 l-32 -27 22 -36 c14 -23 16 -31 7 -24 -9 7 -18 10 -21 7 -3 -3 -5 2
-5 12 2 22 -21 30 -29 10 -7 -19 34 -79 48 -70 7 4 8 2 4 -4 -4 -7 -3 -19 2
-29 9 -15 11 -14 23 5 8 12 20 22 27 22 7 0 15 7 18 15 4 8 12 15 19 15 8 0
29 9 47 19 53 31 152 60 212 63 l56 2 0 41 c0 22 -7 51 -16 63 -13 20 -23 22
-92 21 -42 -1 -95 -7 -118 -14z"/>
</g>
</svg>
